<?xml version="1.0" encoding="utf-8"?><svg width="265" height="194" viewBox="0 0 265 194" xmlns="http://www.w3.org/2000/svg" xmlns:xlink="http://www.w3.org/1999/xlink"><svg id="clear-view-escapes" data-name="Layer 1" width="144.4" height="61.53" viewBox="-1 -1 144.4 61.53" xmlns="http://www.w3.org/2000/svg"><defs><style>.acls-1{fill:#fff}</style></defs><path class="acls-1" d="M19.5 27.52v4.75H5.93v5.51h12.45v4.39H5.93v6.3h13.85v4.75H.28v-25.7H19.5zM27.36 48.59a3 3 0 00.88 1 3.78 3.78 0 001.24.56 5.84 5.84 0 001.46.18 5.46 5.46 0 001.13-.13 3.86 3.86 0 001.08-.4 2.47 2.47 0 00.85-.75 1.89 1.89 0 00.32-1.13 1.91 1.91 0 00-1.53-1.73 30.59 30.59 0 00-4.3-1.19q-1.12-.25-2.18-.59a7.38 7.38 0 01-1.89-.9 4.35 4.35 0 01-1.33-1.4 4 4 0 01-.5-2.07 5.6 5.6 0 01.7-3 5.16 5.16 0 011.85-1.82 8.13 8.13 0 012.59-.94 15.92 15.92 0 013-.27 14.79 14.79 0 012.93.29 7.77 7.77 0 012.54 1 5.83 5.83 0 011.8 1.88 6.11 6.11 0 01.89 2.82H34a2.24 2.24 0 00-1.12-2 5.1 5.1 0 00-2.37-.52 8.77 8.77 0 00-.94.05 3.15 3.15 0 00-.92.23 1.91 1.91 0 00-.7.52 1.38 1.38 0 00-.29.92 1.4 1.4 0 00.5 1.12 3.88 3.88 0 001.31.7 16.38 16.38 0 001.85.49l2.18.49a21.57 21.57 0 012.18.61 7.2 7.2 0 011.89 1 4.63 4.63 0 011.33 1.48 4.34 4.34 0 01.5 2.18 5.65 5.65 0 01-2.66 5.07A7.9 7.9 0 0134 53.37a15.9 15.9 0 01-3.11.31 15.36 15.36 0 01-3.17-.32A8.35 8.35 0 0125 52.27a6.17 6.17 0 01-2-2 6.25 6.25 0 01-.85-3.11H27a2.8 2.8 0 00.36 1.43zM51.27 38a3.59 3.59 0 00-2.05.56A4.45 4.45 0 0047.87 40a6.23 6.23 0 00-.74 1.94 10.54 10.54 0 00-.21 2.06 10.11 10.11 0 00.21 2 6.32 6.32 0 00.7 1.89 4 4 0 001.31 1.39 3.61 3.61 0 002 .54 3.75 3.75 0 002.83-1 4.86 4.86 0 001.24-2.75h4.93a8.43 8.43 0 01-2.88 5.65 9.29 9.29 0 01-6.08 1.94 10.16 10.16 0 01-3.83-.7 8.49 8.49 0 01-3-2 8.92 8.92 0 01-1.91-3 10.42 10.42 0 01-.68-3.83 12.4 12.4 0 01.63-4 9 9 0 011.9-3.13 8.49 8.49 0 013-2.1 10.15 10.15 0 014-.76 11.63 11.63 0 013.19.43 8.49 8.49 0 012.73 1.31 6.79 6.79 0 012.83 5.31h-5A3.43 3.43 0 0051.27 38zM62.82 40.33a5.93 5.93 0 01.9-3 6.13 6.13 0 012-1.91 8.83 8.83 0 012.75-1 15.71 15.71 0 013.08-.31 20.85 20.85 0 012.84.2 8.72 8.72 0 012.63.77A5.18 5.18 0 0179 36.67a4.47 4.47 0 01.76 2.72v9.68a19.49 19.49 0 00.14 2.41 4.34 4.34 0 00.5 1.73h-5.19a6.77 6.77 0 01-.21-.88 7.44 7.44 0 01-.13-.92A6.64 6.64 0 0172 53.17a11.55 11.55 0 01-3.38.5 9.1 9.1 0 01-2.48-.32 5.68 5.68 0 01-2-1 4.69 4.69 0 01-1.35-1.73 5.84 5.84 0 01-.49-2.48 5.42 5.42 0 01.56-2.61 4.66 4.66 0 011.44-1.64 6.44 6.44 0 012-.92 21.75 21.75 0 012.29-.49q1.15-.18 2.27-.29a13.74 13.74 0 002-.32 3.43 3.43 0 001.37-.63 1.38 1.38 0 00.4-1.24 2.72 2.72 0 00-.27-1.31 2 2 0 00-.72-.69 2.86 2.86 0 00-1-.36 8.61 8.61 0 00-1.28-.09 3.88 3.88 0 00-2.37.65 2.89 2.89 0 00-1 2.16h-5.17zm11.8 3.78a2.28 2.28 0 01-.81.45 8.28 8.28 0 01-1 .27c-.41.07-.81.17-1.2.17s-.82.11-1.22.18a9.24 9.24 0 00-1.13.29 3.34 3.34 0 00-1 .49 2.3 2.3 0 00-.67.77 2.49 2.49 0 00-.25 1.19 2.4 2.4 0 00.25 1.15 1.93 1.93 0 00.68.74 2.9 2.9 0 001 .38 6.48 6.48 0 001.19.11 4.51 4.51 0 002.34-.5 3.36 3.36 0 001.22-1.21 3.87 3.87 0 00.49-1.42 10.06 10.06 0 00.12-1.17v-1.89zM88.56 34.6V37h.07A5.62 5.62 0 0191 34.78a7.29 7.29 0 013.17-.68 8.07 8.07 0 013.78.83 7.82 7.82 0 012.63 2.2 9.31 9.31 0 011.55 3.19 14.19 14.19 0 01.5 3.8 12.82 12.82 0 01-.5 3.6 9.18 9.18 0 01-1.53 3.06 7.58 7.58 0 01-2.6 2.11 7.69 7.69 0 01-3.58.79 7.23 7.23 0 01-3.18-.7 6 6 0 01-2.39-2.07h-.04v8.82H83.7V34.6h4.86zm6.64 14.76A4.09 4.09 0 0096.56 48a5.43 5.43 0 00.74-1.89 11.19 11.19 0 00.22-2.2 10.32 10.32 0 00-.23-2.2 5.86 5.86 0 00-.77-1.92 4.33 4.33 0 00-1.39-1.37 3.87 3.87 0 00-2.08-.42 3.94 3.94 0 00-2.11.52 4.22 4.22 0 00-1.37 1.35 5.6 5.6 0 00-.74 1.91 11.3 11.3 0 00-.2 2.22 10.31 10.31 0 00.23 2.2 5.69 5.69 0 00.76 1.8 4.36 4.36 0 005.58 1.36zM111.15 48.75a5.24 5.24 0 006 .34 3.21 3.21 0 001.37-1.64H123a8.54 8.54 0 01-3.31 4.79 9.75 9.75 0 01-5.4 1.44 10.6 10.6 0 01-4-.7 8.22 8.22 0 01-3-2 9 9 0 01-1.89-3.09 11.34 11.34 0 01-.67-4 10.84 10.84 0 01.68-3.89 9 9 0 014.95-5.18 9.63 9.63 0 013.87-.76 8.84 8.84 0 014.14.92 8.26 8.26 0 012.9 2.46A10.14 10.14 0 01123 41a13.14 13.14 0 01.36 4.14H109.9a5.16 5.16 0 001.25 3.61zm5.78-9.75a3.59 3.59 0 00-2.79-1 4.45 4.45 0 00-2 .41 3.89 3.89 0 00-1.3 1 3.77 3.77 0 00-.68 1.3 5.83 5.83 0 00-.23 1.22h8.31a5.91 5.91 0 00-1.31-2.93zM130.64 48.59a3 3 0 00.88 1 3.78 3.78 0 001.24.56 5.83 5.83 0 001.46.18 5.46 5.46 0 001.13-.13 3.86 3.86 0 001.08-.4 2.47 2.47 0 00.81-.72 1.89 1.89 0 00.32-1.13 1.91 1.91 0 00-1.56-1.76 30.55 30.55 0 00-4.22-1.19q-1.11-.25-2.18-.59a7.39 7.39 0 01-1.89-.9 4.36 4.36 0 01-1.33-1.4 4 4 0 01-.5-2.07 5.6 5.6 0 01.7-3 5.18 5.18 0 011.85-1.82 8.13 8.13 0 012.59-.94 15.91 15.91 0 013-.27 14.79 14.79 0 012.93.29 7.77 7.77 0 012.54 1 5.84 5.84 0 011.85 1.82 6.11 6.11 0 01.88 2.86h-4.86a2.24 2.24 0 00-1.12-2 5.1 5.1 0 00-2.37-.52 8.77 8.77 0 00-.94.05 3.15 3.15 0 00-.92.23 1.9 1.9 0 00-.7.52 1.38 1.38 0 00-.29.92 1.4 1.4 0 00.5 1.12 3.87 3.87 0 001.31.7 16.33 16.33 0 001.85.49l2.1.51a21.57 21.57 0 012.18.61 7.18 7.18 0 011.89 1 4.63 4.63 0 011.33 1.48 4.33 4.33 0 01.5 2.18 5.65 5.65 0 01-2.68 5.04 7.89 7.89 0 01-2.72 1.06 15.9 15.9 0 01-3.11.31 15.35 15.35 0 01-3.17-.32 8.35 8.35 0 01-2.75-1.08 6.18 6.18 0 01-2-2 6.25 6.25 0 01-.85-3.11h4.86a2.8 2.8 0 00.38 1.42zM23.64 6.29a6.36 6.36 0 00-.55-1.43 4 4 0 00-.9-1.12A4 4 0 0020.9 3a5.11 5.11 0 00-1.71-.26 5 5 0 00-2.46.58A4.84 4.84 0 0015 4.85a6.93 6.93 0 00-1 2.19 10.16 10.16 0 000 5 6.92 6.92 0 001 2.19 4.83 4.83 0 001.69 1.54 5 5 0 002.46.57A4.44 4.44 0 0021 16a4.12 4.12 0 001.38-1 4.71 4.71 0 00.9-1.49 7.13 7.13 0 00.43-1.83h3.05a8.48 8.48 0 01-.69 2.93 7.17 7.17 0 01-1.59 2.29 7 7 0 01-2.35 1.49 8.14 8.14 0 01-3 .53 8.43 8.43 0 01-3.59-.74 7.88 7.88 0 01-2.69-2 9 9 0 01-1.69-3 11 11 0 01-.59-3.63 11 11 0 01.59-3.6 9 9 0 011.69-3 8 8 0 012.69-2 8.29 8.29 0 013.65-.76A9.46 9.46 0 0122 .6a7.31 7.31 0 012.34 1.2A6.23 6.23 0 0126 3.72a6.66 6.66 0 01.78 2.58h-3.14zM29.31.62h2.85v17.85h-2.85V.62zM37.49 12.74a5 5 0 00.21 1.45 3.57 3.57 0 00.64 1.23 3.06 3.06 0 001.08.84 3.54 3.54 0 001.55.31A3.42 3.42 0 0043 16a3.17 3.17 0 001.14-1.61h2.7a5.36 5.36 0 01-2.1 3.26 5.71 5.71 0 01-1.74.85 7 7 0 01-2 .29 6.85 6.85 0 01-2.7-.5 5.58 5.58 0 01-2-1.4 5.93 5.93 0 01-1.3-2.12 8.74 8.74 0 01-.36-2.77 7.79 7.79 0 01.44-2.61 6.68 6.68 0 011.25-2.18 5.86 5.86 0 014.56-2 5.8 5.8 0 012.74.64 6 6 0 012 1.69 6.84 6.84 0 011.17 2.39 7.42 7.42 0 01.2 2.81h-9.5zm6.65-1.88a4.61 4.61 0 00-.29-1.3 3.47 3.47 0 00-.65-1.09 3.23 3.23 0 00-1-.75 3 3 0 00-1.31-.29 3.42 3.42 0 00-1.36.26 3.11 3.11 0 00-1.05.73 3.59 3.59 0 00-.7 1.09 3.78 3.78 0 00-.29 1.35h6.65zM60 15.59a1.51 1.51 0 00.14.75.58.58 0 00.54.23H61a1.85 1.85 0 00.4 0v2l-.4.04-.49.11-.5.08h-.43a2.75 2.75 0 01-1.45-.35 1.74 1.74 0 01-.75-1.23 5 5 0 01-2.09 1.2 8.22 8.22 0 01-2.39.38 5.86 5.86 0 01-1.68-.24 4.38 4.38 0 01-1.41-.7 3.35 3.35 0 01-1-1.18 3.62 3.62 0 01-.35-1.68 3.84 3.84 0 01.44-2 3.24 3.24 0 011.15-1.18 5.21 5.21 0 011.6-.61q.89-.19 1.79-.29a14.67 14.67 0 011.48-.21 6.86 6.86 0 001.24-.21 1.9 1.9 0 00.84-.37 1.27 1.27 0 00.31-.94 1.46 1.46 0 00-.26-.9 1.77 1.77 0 00-.65-.54 2.82 2.82 0 00-.86-.25 6.94 6.94 0 00-.9-.06 3.58 3.58 0 00-2 .5 2 2 0 00-.87 1.55h-2.83a4.29 4.29 0 01.6-2.08 4.14 4.14 0 011.34-1.33 5.48 5.48 0 011.84-.7 10.94 10.94 0 012.1-.2 8.85 8.85 0 011.88.2 5.34 5.34 0 011.65.62 3.61 3.61 0 011.19 1.16A3.19 3.19 0 0160 8.94v6.65zM57.14 12a3.45 3.45 0 01-1.6.51q-1 .09-1.9.26a6.12 6.12 0 00-.87.21 2.63 2.63 0 00-.75.38 1.65 1.65 0 00-.51.63 2.14 2.14 0 00-.19.94 1.19 1.19 0 00.27.8 2 2 0 00.66.51 3.08 3.08 0 00.85.26 5.3 5.3 0 00.84.07 4.6 4.6 0 001-.12A3.4 3.4 0 0056 16a2.73 2.73 0 00.81-.76 1.93 1.93 0 00.33-1.14V12zM63.06 5.54h2.68V8h.05a2.88 2.88 0 01.49-1 4.73 4.73 0 01.88-.91 4.4 4.4 0 011.14-.66 3.41 3.41 0 011.28-.25 6.21 6.21 0 01.69 0h.39V8L70 7.93a5.06 5.06 0 00-.61 0 3.28 3.28 0 00-1.36.29 3.13 3.13 0 00-1.09.78 4.16 4.16 0 00-.75 1.39 6 6 0 00-.27 1.9v6.15h-2.86V5.54zM77.19.62h3.25l4.48 14.13H85L89.54.62h3.17l-6.1 17.85h-3.47zM94.42.62h2.85v2.7h-2.85V.62zm0 4.93h2.85v12.92h-2.85V5.54zM102.59 12.74a5 5 0 00.21 1.45 3.57 3.57 0 00.64 1.23 3.06 3.06 0 001.08.84 3.54 3.54 0 001.55.31 3.42 3.42 0 002-.54 3.18 3.18 0 001.14-1.61h2.7a5.36 5.36 0 01-2.1 3.26 5.71 5.71 0 01-1.74.85 7 7 0 01-2 .29 6.85 6.85 0 01-2.7-.5 5.58 5.58 0 01-2-1.4 5.93 5.93 0 01-1.22-2.15 8.73 8.73 0 01-.41-2.77 7.77 7.77 0 01.44-2.61 6.69 6.69 0 011.25-2.18 5.86 5.86 0 014.56-2 5.79 5.79 0 012.74.64 6 6 0 012 1.69 6.85 6.85 0 011.16 2.41 7.42 7.42 0 01.19 2.81h-9.5zm6.65-1.88a4.6 4.6 0 00-.29-1.3 3.48 3.48 0 00-.65-1.09 3.22 3.22 0 00-1-.75 3 3 0 00-1.3-.28 3.43 3.43 0 00-1.36.26 3.12 3.12 0 00-1 .73 3.6 3.6 0 00-.7 1.09 3.8 3.8 0 00-.29 1.35h6.65zM113.1 5.54h3l2.53 9.65 2.42-9.65H124l2.33 9.65L129 5.54h2.9l-4 12.93h-2.93l-2.4-9.6-2.37 9.6h-3z" transform="translate(-.28 -.19)"/></svg><svg id="comment" data-name="Layer 1" width="66" height="66" viewBox="-1 -1 66 66" y="61.53" xmlns="http://www.w3.org/2000/svg"><defs><style>.bcls-1{fill:#2f5572}</style></defs><path class="bcls-1" d="M.72.08A.67.67 0 000 .8v46.48a.72.72 0 00.72.72H48l16 16V.72a.67.67 0 00-.72-.72H.8z"/></svg><svg width="23.23" height="44.01" viewBox="-1 -1 23.23 44.01" id="facebook" x="210.4" y="44.06" xmlns="http://www.w3.org/2000/svg"><path fill="#FFF" d="M21.23.31V7H17.4a3.55 3.55 0 00-2.85.91 4.26 4.26 0 00-.74 2.72v4.77H21l-1 7.47h-6.19V42H6.27V22.85H0v-7.47h6.27V9.85q0-4.69 2.55-7.28A9 9 0 0115.63 0a39.57 39.57 0 015.6.31z"/></svg><svg id="fire" data-name="Layer 1" width="58" height="66" viewBox="-1 -1 58 66" x="66" y="61.53" xmlns="http://www.w3.org/2000/svg"><defs><style>.dcls-1{fill:#d4953d}</style></defs><path class="dcls-1" d="M16 0C24 16 0 24 0 40s16 24 16 24C8.16 48.16 32 40 32 24S16 0 16 0zm24 24c8 16-16 24-16 40h24c3.2 0 8-4 8-16 0-16-16-24-16-24z"/></svg><svg id="globe" data-name="Layer 1" width="66" height="66" viewBox="-1 -1 66 66" x="144.4" xmlns="http://www.w3.org/2000/svg"><defs><style>.ecls-1{fill:#d4953f}</style></defs><path class="ecls-1" d="M32 0a32 32 0 1032 32A32 32 0 0032 0zm0 8a23.75 23.75 0 017.52 1.52c-1.68 1.6-3.6 3-3.28 4.48s5.52 1 5.52 4c0 2.16-3.36 2.8-1 5.28 2.8 2.8-5.12 7.84-5.28 11.52-.24 6.64 6.72 7.76 12.24 7.76 3.36 0 4.24 1.6 4 3.52a24.07 24.07 0 01-19.76 10 22.94 22.94 0 01-8.48-1.76c1.76-3.52-2.24-10.48-6-12.72-1.84-1.84-5.76-1.12-8-2a23.49 23.49 0 01-1.52-6.72 1.42 1.42 0 011.28-.72c1.52 0 3.6 3 4.72 2.72 1.4-.32-5.96-10.48-2.52-12.48 1.6-1 4.8 3.12 3.76-1.28-1-4.08 2.88-2.24 5.28-3.28 2.08-.88 3.6-3.28 1-4.72a8.55 8.55 0 01-1.76-1.52A23.75 23.75 0 0132 8.08V8zm18.48 8.72A26.46 26.46 0 0154 22.48v.24a11.78 11.78 0 01-1.76 1.76C50 26.72 49.68 22.8 48.72 22c-1-1-4.8.16-5.28-1-.56-1.48 4-3.4 7.04-4.28z"/></svg><svg width="44.01" height="44.01" viewBox="-1 -1 44.01 44.01" id="instagram" x="210.4" y="88.07" xmlns="http://www.w3.org/2000/svg"><path fill="#FFF" d="M37.25 35.49V17.77h-3.69a11.77 11.77 0 01.57 3.58 12.12 12.12 0 01-1.75 6.36 12.76 12.76 0 01-4.76 4.59 13.13 13.13 0 01-6.56 1.7 12.78 12.78 0 01-9.19-3.71 12 12 0 01-3.83-9 11.77 11.77 0 01.49-3.56H4.68v17.76a1.63 1.63 0 001.6 1.67h29.3a1.63 1.63 0 001.17-.47 1.59 1.59 0 00.5-1.2zm-7.77-14.57A7.75 7.75 0 0027 15.14a8.28 8.28 0 00-6-2.4 8.25 8.25 0 00-5.91 2.39 7.75 7.75 0 00-2.47 5.78 7.75 7.75 0 002.47 5.79A8.25 8.25 0 0021 29.1a8.28 8.28 0 006-2.4 7.75 7.75 0 002.48-5.78zm7.76-9.84V6.56a1.84 1.84 0 00-.54-1.31 1.8 1.8 0 00-1.31-.56h-4.78a1.8 1.8 0 00-1.31.56 1.84 1.84 0 00-.54 1.31v4.52A1.87 1.87 0 0030.6 13h4.8a1.87 1.87 0 001.85-1.89zM42 5.39v31.23A5.41 5.41 0 0136.62 42H5.39a5.19 5.19 0 01-3.8-1.59A5.19 5.19 0 010 36.62V5.39a5.19 5.19 0 011.59-3.8A5.19 5.19 0 015.39 0h31.23a5.19 5.19 0 013.8 1.59A5.19 5.19 0 0142 5.39z"/></svg><svg id="mail" data-name="Layer 1" width="66" height="50" viewBox="-1 -1 66 50" x="144.4" y="66" xmlns="http://www.w3.org/2000/svg"><defs><style>.gcls-1{fill:#2f5572}</style></defs><path class="gcls-1" d="M0 0v8l32 16L64 8V0H0zm0 16v32h64V16L32 32z"/></svg><svg id="rain" data-name="Layer 1" width="66" height="66" viewBox="-1 -1 66 66" y="127.53" xmlns="http://www.w3.org/2000/svg"><defs><style>.hcls-1{fill:#d4953f}</style></defs><path class="hcls-1" d="M36 0a20.42 20.42 0 00-20 16A16 16 0 000 32a15.4 15.4 0 004.27 10.72A11.88 11.88 0 0112 40a10.51 10.51 0 014.47 1A12 12 0 0128 32a12.06 12.06 0 0111.51 9A11.84 11.84 0 0144 40a11.94 11.94 0 0111 7.52A12.07 12.07 0 0064 36c0-5.2-3.36-10.32-8-12v-4A20 20 0 0036 0zm-9.27 40A4 4 0 0024 44v16a4 4 0 108 0V44a4 4 0 00-4.71-4h-.56zm-16 8A4 4 0 008 52v8a4 4 0 108 0v-8a4 4 0 00-4.71-4h-.54zm32 0A4 4 0 0040 52v8a4 4 0 108 0v-8a4 4 0 00-4.71-4h-.58z" transform="translate(-.04)"/></svg><svg id="star" data-name="Layer 1" width="66" height="66" viewBox="-1 -1 66 66" x="66" y="127.53" xmlns="http://www.w3.org/2000/svg"><defs><style>.icls-1{fill:#d4953f}</style></defs><path class="icls-1" d="M32 0l-8 24H0l20 16-8 24 20-16 20 16-8-24 20-16H40z"/></svg><svg width="53.78" height="44.06" viewBox="-1 -1 53.78 44.06" id="twitter" x="210.4" xmlns="http://www.w3.org/2000/svg"><path fill="#FFF" d="M51.78 5a22.23 22.23 0 01-5.32 5.52v1.38a30.15 30.15 0 01-1.25 8.53 30.81 30.81 0 01-3.76 8.13 32.1 32.1 0 01-6.06 6.92 27 27 0 01-8.48 4.8 31 31 0 01-10.62 1.8A29.47 29.47 0 010 37.29a22.71 22.71 0 002.56.13 20.78 20.78 0 0013.17-4.53 10.63 10.63 0 01-9.92-7.36 13.45 13.45 0 002 .16 11 11 0 002.79-.36 10.44 10.44 0 01-6.09-3.67 10.25 10.25 0 01-2.41-6.75v-.13a10.52 10.52 0 004.8 1.34 10.6 10.6 0 01-3.45-3.78 10.34 10.34 0 01-1.28-5.07 10.4 10.4 0 011.45-5.33 30.08 30.08 0 009.71 7.83A29.57 29.57 0 0025.53 13a11.79 11.79 0 01-.26-2.43 10.23 10.23 0 013-7.48 10.64 10.64 0 0115 0l.21.22A20.81 20.81 0 0050.33.8a10.3 10.3 0 01-4.67 5.85A21.14 21.14 0 0051.78 5z"/></svg><svg id="wifi" data-name="Layer 1" width="62" height="66" viewBox="-1 -1 62 66" x="132" y="127.53" xmlns="http://www.w3.org/2000/svg"><defs><style>.kcls-1{fill:#d4953e}</style></defs><path class="kcls-1" d="M29.88 0A55.39 55.39 0 000 8.72l4.22 6.48a47.32 47.32 0 0125.66-7.28 47.31 47.31 0 0125.9 7.28L60 8.72A55.53 55.53 0 0029.88 0zm0 24a31.08 31.08 0 00-17 5l4.22 6.72A23.09 23.09 0 0129.8 32a24.17 24.17 0 0113 3.76L47 29a32.37 32.37 0 00-17.2-5h.07zm0 24a8 8 0 108 8 8 8 0 00-8-8z"/></svg><svg width="36.75" height="44" viewBox="-1 -1 36.75 44" id="youtube" x="210.4" y="132.07999999999998" xmlns="http://www.w3.org/2000/svg"><path fill="#FFF" d="M22.13 29.15v5q0 1.57-.91 1.57a1.5 1.5 0 01-1.06-.52v-7.11a1.5 1.5 0 011.06-.54q.91 0 .91 1.6zm7.92 0v1.08h-2.1v-1.06q0-1.59 1.06-1.59t1 1.59zM7.42 24h2.5v-2.14h-7.3v2.2h2.46V37.4h2.34V24zm6.75 13.4h2.09V25.82h-2.09v8.86a1.86 1.86 0 01-1.31 1 .48.48 0 01-.49-.47 6.52 6.52 0 010-.82v-8.57h-2.14V35a5.79 5.79 0 00.19 1.71 1.26 1.26 0 001.36.87 3.43 3.43 0 002.39-1.43v1.25zm10.05-3.47v-4.6A8.33 8.33 0 0024 27a1.63 1.63 0 00-1.67-1.31A2.82 2.82 0 0020.16 27v-5.1h-2.08v15.5h2.09v-1.13a2.91 2.91 0 002.18 1.31A1.62 1.62 0 0024 36.27a8.61 8.61 0 00.22-2.35zm7.92-.24v-.3H30a11.6 11.6 0 010 1.43.9.9 0 01-.94.85q-1.08 0-1.08-1.61V32h4.19v-2.41a4.65 4.65 0 00-.66-2.72 3.2 3.2 0 00-5 0 4.52 4.52 0 00-.66 2.72v4.05a4.4 4.4 0 00.66 2.72 3 3 0 002.49 1.2 2.9 2.9 0 003-2.51 10.31 10.31 0 00.09-1.36zM17.89 12.3V7.38q0-1.61-1-1.61t-1 1.61v4.92q0 1.64 1 1.64t1-1.64zm16.85 17.6a40.6 40.6 0 01-.61 8.2 4.45 4.45 0 01-1.36 2.32 4.1 4.1 0 01-2.39 1.08 125.31 125.31 0 01-13 .49 125.31 125.31 0 01-13-.49A4.15 4.15 0 012 40.42 4.28 4.28 0 01.63 38.1 39.76 39.76 0 010 29.9a40.6 40.6 0 01.61-8.2A4.45 4.45 0 012 19.37a4.25 4.25 0 012.41-1.1q4.29-.47 13-.47t13 .47a4.4 4.4 0 013.75 3.42 39.76 39.76 0 01.58 8.21zM11.35 0h2.39l-2.83 9.35v6.35H8.57V9.35a39.68 39.68 0 00-1.43-5Q6.27 2 5.61 0H8.1l1.67 6.16zM20 7.8v4.1a4.59 4.59 0 01-.66 2.76 2.88 2.88 0 01-2.49 1.19 2.9 2.9 0 01-2.46-1.19 4.68 4.68 0 01-.66-2.76V7.8a4.59 4.59 0 01.66-2.74 2.9 2.9 0 012.46-1.19 2.88 2.88 0 012.49 1.19A4.59 4.59 0 0120 7.8zM27.87 4v11.7h-2.13v-1.27a3.37 3.37 0 01-2.41 1.45A1.31 1.31 0 0122 15a6 6 0 01-.19-1.76V4h2.13v8.6a6.14 6.14 0 000 .82.49.49 0 00.47.52 1.87 1.87 0 001.31-1V4h2.16z"/></svg></svg>